<mxfile host="65bd71144e">
    <diagram name="Diagrama general" id="5fZk9H4WwKNzA41UexdH">
        <mxGraphModel dx="1840" dy="460" grid="1" gridSize="10" guides="1" tooltips="1" connect="1" arrows="1" fold="1" page="1" pageScale="1" pageWidth="827" pageHeight="1169" math="0" shadow="0">
            <root>
                <mxCell id="0"/>
                <mxCell id="1" parent="0"/>
                <mxCell id="61" value="" style="rounded=0;whiteSpace=wrap;html=1;fillColor=none;" parent="1" vertex="1">
                    <mxGeometry x="450" y="1910" width="700" height="390" as="geometry"/>
                </mxCell>
                <mxCell id="_CQd6iAFJN-Xe26YO4HJ-53" value="" style="rounded=0;whiteSpace=wrap;html=1;fillColor=default;" parent="1" vertex="1">
                    <mxGeometry x="-110" y="920" width="710" height="710" as="geometry"/>
                </mxCell>
                <mxCell id="_CQd6iAFJN-Xe26YO4HJ-12" value="Dash Dashboards" style="rounded=0;whiteSpace=wrap;html=1;" parent="1" vertex="1">
                    <mxGeometry x="80" y="1360" width="120" height="60" as="geometry"/>
                </mxCell>
                <mxCell id="_CQd6iAFJN-Xe26YO4HJ-13" value="Apache Airflow" style="rounded=0;whiteSpace=wrap;html=1;" parent="1" vertex="1">
                    <mxGeometry x="280" y="1360" width="120" height="60" as="geometry"/>
                </mxCell>
                <mxCell id="_CQd6iAFJN-Xe26YO4HJ-38" style="edgeStyle=orthogonalEdgeStyle;rounded=0;orthogonalLoop=1;jettySize=auto;html=1;exitX=0.5;exitY=0;exitDx=0;exitDy=0;entryX=0.5;entryY=1;entryDx=0;entryDy=0;" parent="1" source="_CQd6iAFJN-Xe26YO4HJ-14" target="_CQd6iAFJN-Xe26YO4HJ-15" edge="1">
                    <mxGeometry relative="1" as="geometry">
                        <Array as="points"/>
                    </mxGeometry>
                </mxCell>
                <mxCell id="_CQd6iAFJN-Xe26YO4HJ-14" value="usuario" style="rounded=0;whiteSpace=wrap;html=1;" parent="1" vertex="1">
                    <mxGeometry x="180" y="1800" width="120" height="60" as="geometry"/>
                </mxCell>
                <mxCell id="_CQd6iAFJN-Xe26YO4HJ-48" style="edgeStyle=orthogonalEdgeStyle;rounded=0;orthogonalLoop=1;jettySize=auto;html=1;entryX=0.5;entryY=1;entryDx=0;entryDy=0;" parent="1" source="_CQd6iAFJN-Xe26YO4HJ-15" target="_CQd6iAFJN-Xe26YO4HJ-12" edge="1">
                    <mxGeometry relative="1" as="geometry">
                        <Array as="points">
                            <mxPoint x="200" y="1490"/>
                            <mxPoint x="140" y="1490"/>
                        </Array>
                    </mxGeometry>
                </mxCell>
                <mxCell id="_CQd6iAFJN-Xe26YO4HJ-49" style="edgeStyle=orthogonalEdgeStyle;rounded=0;orthogonalLoop=1;jettySize=auto;html=1;entryX=0.5;entryY=1;entryDx=0;entryDy=0;" parent="1" source="_CQd6iAFJN-Xe26YO4HJ-15" target="_CQd6iAFJN-Xe26YO4HJ-13" edge="1">
                    <mxGeometry relative="1" as="geometry">
                        <Array as="points">
                            <mxPoint x="280" y="1490"/>
                            <mxPoint x="340" y="1490"/>
                        </Array>
                    </mxGeometry>
                </mxCell>
                <mxCell id="_CQd6iAFJN-Xe26YO4HJ-15" value="VALIDACIÓN" style="rounded=0;whiteSpace=wrap;html=1;" parent="1" vertex="1">
                    <mxGeometry x="188.75" y="1600" width="102.5" height="50" as="geometry"/>
                </mxCell>
                <mxCell id="_CQd6iAFJN-Xe26YO4HJ-16" value="Workflow" style="rounded=0;whiteSpace=wrap;html=1;" parent="1" vertex="1">
                    <mxGeometry x="120" y="1070" width="240" height="190" as="geometry"/>
                </mxCell>
                <mxCell id="_CQd6iAFJN-Xe26YO4HJ-17" value="ETL" style="rounded=0;whiteSpace=wrap;html=1;" parent="1" vertex="1">
                    <mxGeometry x="160" y="1200" width="80" height="40" as="geometry"/>
                </mxCell>
                <mxCell id="_CQd6iAFJN-Xe26YO4HJ-18" value="ML" style="rounded=0;whiteSpace=wrap;html=1;" parent="1" vertex="1">
                    <mxGeometry x="240" y="1200" width="70" height="40" as="geometry"/>
                </mxCell>
                <mxCell id="_CQd6iAFJN-Xe26YO4HJ-19" value="DDBB" style="rounded=0;whiteSpace=wrap;html=1;" parent="1" vertex="1">
                    <mxGeometry x="180" y="820" width="120" height="60" as="geometry"/>
                </mxCell>
                <mxCell id="_CQd6iAFJN-Xe26YO4HJ-20" value="" style="endArrow=classic;html=1;rounded=0;" parent="1" edge="1">
                    <mxGeometry width="50" height="50" relative="1" as="geometry">
                        <mxPoint x="200" y="1068" as="sourcePoint"/>
                        <mxPoint x="200" y="998" as="targetPoint"/>
                    </mxGeometry>
                </mxCell>
                <mxCell id="14" value="Consulta DDBB" style="edgeLabel;html=1;align=center;verticalAlign=middle;resizable=0;points=[];" parent="_CQd6iAFJN-Xe26YO4HJ-20" vertex="1" connectable="0">
                    <mxGeometry x="-0.1137" y="-1" relative="1" as="geometry">
                        <mxPoint as="offset"/>
                    </mxGeometry>
                </mxCell>
                <mxCell id="_CQd6iAFJN-Xe26YO4HJ-23" value="" style="edgeStyle=orthogonalEdgeStyle;rounded=0;orthogonalLoop=1;jettySize=auto;html=1;" parent="1" edge="1">
                    <mxGeometry relative="1" as="geometry">
                        <mxPoint x="199.52" y="940" as="sourcePoint"/>
                        <mxPoint x="199.52" y="880" as="targetPoint"/>
                    </mxGeometry>
                </mxCell>
                <mxCell id="_CQd6iAFJN-Xe26YO4HJ-22" value="FastAPI" style="rounded=0;whiteSpace=wrap;html=1;" parent="1" vertex="1">
                    <mxGeometry x="180" y="940" width="120" height="60" as="geometry"/>
                </mxCell>
                <mxCell id="_CQd6iAFJN-Xe26YO4HJ-26" value="" style="endArrow=classic;html=1;rounded=0;exitX=0.174;exitY=0.002;exitDx=0;exitDy=0;exitPerimeter=0;" parent="1" edge="1">
                    <mxGeometry width="50" height="50" relative="1" as="geometry">
                        <mxPoint x="295.7199999999999" y="1360.12" as="sourcePoint"/>
                        <mxPoint x="295.04288964033196" y="1260" as="targetPoint"/>
                    </mxGeometry>
                </mxCell>
                <mxCell id="18" value="Modifica" style="edgeLabel;html=1;align=center;verticalAlign=middle;resizable=0;points=[];" parent="_CQd6iAFJN-Xe26YO4HJ-26" vertex="1" connectable="0">
                    <mxGeometry x="-0.0324" relative="1" as="geometry">
                        <mxPoint as="offset"/>
                    </mxGeometry>
                </mxCell>
                <mxCell id="_CQd6iAFJN-Xe26YO4HJ-32" value="" style="endArrow=classic;html=1;rounded=0;exitX=0.174;exitY=0.002;exitDx=0;exitDy=0;exitPerimeter=0;" parent="1" edge="1">
                    <mxGeometry width="50" height="50" relative="1" as="geometry">
                        <mxPoint x="185.87999999999988" y="1360.12" as="sourcePoint"/>
                        <mxPoint x="185.20288964033193" y="1260" as="targetPoint"/>
                    </mxGeometry>
                </mxCell>
                <mxCell id="17" value="Modifica" style="edgeLabel;html=1;align=center;verticalAlign=middle;resizable=0;points=[];" parent="_CQd6iAFJN-Xe26YO4HJ-32" vertex="1" connectable="0">
                    <mxGeometry x="0.0059" y="2" relative="1" as="geometry">
                        <mxPoint as="offset"/>
                    </mxGeometry>
                </mxCell>
                <mxCell id="_CQd6iAFJN-Xe26YO4HJ-34" value="" style="endArrow=classic;html=1;rounded=0;exitX=0.5;exitY=1;exitDx=0;exitDy=0;" parent="1" edge="1">
                    <mxGeometry width="50" height="50" relative="1" as="geometry">
                        <mxPoint x="135" y="1260.12" as="sourcePoint"/>
                        <mxPoint x="135" y="1360.12" as="targetPoint"/>
                    </mxGeometry>
                </mxCell>
                <mxCell id="20" value="Output Del&lt;div&gt;Código&lt;/div&gt;" style="edgeLabel;html=1;align=center;verticalAlign=middle;resizable=0;points=[];" parent="_CQd6iAFJN-Xe26YO4HJ-34" vertex="1" connectable="0">
                    <mxGeometry x="-0.2665" y="-1" relative="1" as="geometry">
                        <mxPoint as="offset"/>
                    </mxGeometry>
                </mxCell>
                <mxCell id="_CQd6iAFJN-Xe26YO4HJ-36" value="" style="endArrow=classic;html=1;rounded=0;exitX=0.5;exitY=1;exitDx=0;exitDy=0;" parent="1" edge="1">
                    <mxGeometry width="50" height="50" relative="1" as="geometry">
                        <mxPoint x="347" y="1260" as="sourcePoint"/>
                        <mxPoint x="347" y="1360" as="targetPoint"/>
                    </mxGeometry>
                </mxCell>
                <mxCell id="19" value="Output del&lt;div&gt;Código&lt;/div&gt;" style="edgeLabel;html=1;align=center;verticalAlign=middle;resizable=0;points=[];" parent="_CQd6iAFJN-Xe26YO4HJ-36" vertex="1" connectable="0">
                    <mxGeometry x="0.1479" relative="1" as="geometry">
                        <mxPoint as="offset"/>
                    </mxGeometry>
                </mxCell>
                <mxCell id="_CQd6iAFJN-Xe26YO4HJ-39" value="Login" style="text;html=1;align=center;verticalAlign=middle;resizable=0;points=[];autosize=1;strokeColor=none;fillColor=none;" parent="1" vertex="1">
                    <mxGeometry x="190" y="1700" width="50" height="30" as="geometry"/>
                </mxCell>
                <mxCell id="_CQd6iAFJN-Xe26YO4HJ-43" value="Orquestación&lt;div&gt;y&amp;nbsp;&lt;span style=&quot;background-color: transparent; color: light-dark(rgb(0, 0, 0), rgb(255, 255, 255));&quot;&gt;DAGs de&lt;/span&gt;&lt;div&gt;Workflow&lt;/div&gt;&lt;/div&gt;" style="text;html=1;align=center;verticalAlign=middle;resizable=0;points=[];autosize=1;strokeColor=none;fillColor=none;" parent="1" vertex="1">
                    <mxGeometry x="405" y="1360" width="90" height="60" as="geometry"/>
                </mxCell>
                <mxCell id="_CQd6iAFJN-Xe26YO4HJ-44" value="&lt;div&gt;Dashboards&lt;/div&gt;&lt;div&gt;Interactivos&lt;/div&gt;" style="text;html=1;align=center;verticalAlign=middle;resizable=0;points=[];autosize=1;strokeColor=none;fillColor=none;" parent="1" vertex="1">
                    <mxGeometry x="-10" y="1370" width="90" height="40" as="geometry"/>
                </mxCell>
                <mxCell id="_CQd6iAFJN-Xe26YO4HJ-50" value="PERMITE&lt;div&gt;ACCESO A&lt;/div&gt;" style="text;html=1;align=center;verticalAlign=middle;resizable=0;points=[];autosize=1;strokeColor=none;fillColor=none;" parent="1" vertex="1">
                    <mxGeometry x="200" y="1503" width="80" height="40" as="geometry"/>
                </mxCell>
                <mxCell id="_CQd6iAFJN-Xe26YO4HJ-51" value="" style="shape=curlyBracket;whiteSpace=wrap;html=1;rounded=1;flipH=1;labelPosition=right;verticalLabelPosition=middle;align=left;verticalAlign=middle;" parent="1" vertex="1">
                    <mxGeometry x="620" y="950" width="110" height="710" as="geometry"/>
                </mxCell>
                <mxCell id="_CQd6iAFJN-Xe26YO4HJ-52" value="&lt;font style=&quot;font-size: 24px;&quot;&gt;(GITHUB)&lt;/font&gt;" style="text;html=1;align=center;verticalAlign=middle;resizable=0;points=[];autosize=1;strokeColor=none;fillColor=none;rotation=90;" parent="1" vertex="1">
                    <mxGeometry x="695" y="1285" width="130" height="40" as="geometry"/>
                </mxCell>
                <mxCell id="_CQd6iAFJN-Xe26YO4HJ-54" value="&lt;font style=&quot;font-size: 24px;&quot;&gt;CODIGO&lt;/font&gt;" style="text;html=1;align=center;verticalAlign=middle;resizable=0;points=[];autosize=1;strokeColor=none;fillColor=none;" parent="1" vertex="1">
                    <mxGeometry x="-90" y="940" width="120" height="40" as="geometry"/>
                </mxCell>
                <mxCell id="2" value="&lt;font style=&quot;font-size: 24px;&quot;&gt;INICIO&lt;/font&gt;&lt;div&gt;&lt;font style=&quot;font-size: 24px;&quot;&gt;(Código)&lt;/font&gt;&lt;/div&gt;" style="text;html=1;align=center;verticalAlign=middle;resizable=0;points=[];autosize=1;strokeColor=none;fillColor=none;" parent="1" vertex="1">
                    <mxGeometry x="180" y="1085" width="120" height="70" as="geometry"/>
                </mxCell>
                <mxCell id="7" value="" style="shape=flexArrow;endArrow=classic;html=1;fillColor=default;" parent="1" edge="1">
                    <mxGeometry width="50" height="50" relative="1" as="geometry">
                        <mxPoint x="220" y="1219.78" as="sourcePoint"/>
                        <mxPoint x="260" y="1219.78" as="targetPoint"/>
                    </mxGeometry>
                </mxCell>
                <mxCell id="9" value="" style="edgeStyle=orthogonalEdgeStyle;rounded=0;orthogonalLoop=1;jettySize=auto;html=1;entryX=0.8;entryY=0.007;entryDx=0;entryDy=0;entryPerimeter=0;" parent="1" target="_CQd6iAFJN-Xe26YO4HJ-22" edge="1">
                    <mxGeometry relative="1" as="geometry">
                        <mxPoint x="275" y="880" as="sourcePoint"/>
                        <mxPoint x="275" y="930" as="targetPoint"/>
                    </mxGeometry>
                </mxCell>
                <mxCell id="12" value="Retorna Datos" style="edgeLabel;html=1;align=center;verticalAlign=middle;resizable=0;points=[];" parent="9" vertex="1" connectable="0">
                    <mxGeometry x="-0.2321" relative="1" as="geometry">
                        <mxPoint as="offset"/>
                    </mxGeometry>
                </mxCell>
                <mxCell id="15" value="" style="edgeStyle=orthogonalEdgeStyle;rounded=0;orthogonalLoop=1;jettySize=auto;html=1;entryX=0.8;entryY=0.007;entryDx=0;entryDy=0;entryPerimeter=0;exitX=0.75;exitY=1;exitDx=0;exitDy=0;" parent="1" source="_CQd6iAFJN-Xe26YO4HJ-22" edge="1">
                    <mxGeometry relative="1" as="geometry">
                        <mxPoint x="270" y="1010" as="sourcePoint"/>
                        <mxPoint x="271" y="1070" as="targetPoint"/>
                    </mxGeometry>
                </mxCell>
                <mxCell id="16" value="Trae Datos" style="edgeLabel;html=1;align=center;verticalAlign=middle;resizable=0;points=[];" parent="15" vertex="1" connectable="0">
                    <mxGeometry x="-0.2321" relative="1" as="geometry">
                        <mxPoint as="offset"/>
                    </mxGeometry>
                </mxCell>
                <mxCell id="25" value="" style="endArrow=none;html=1;" parent="1" edge="1">
                    <mxGeometry width="50" height="50" relative="1" as="geometry">
                        <mxPoint x="1040" y="2250" as="sourcePoint"/>
                        <mxPoint x="1040" y="2006" as="targetPoint"/>
                    </mxGeometry>
                </mxCell>
                <mxCell id="26" value="Usuario" style="rounded=0;whiteSpace=wrap;html=1;" parent="1" vertex="1">
                    <mxGeometry x="480" y="1974" width="80" height="36" as="geometry"/>
                </mxCell>
                <mxCell id="29" value="App con Enpoints por FastAPI para ver los resultados&amp;nbsp;&lt;span style=&quot;background-color: transparent;&quot;&gt;de Dash y Apache Airflow&lt;/span&gt;" style="rounded=0;whiteSpace=wrap;html=1;" parent="1" vertex="1">
                    <mxGeometry x="980" y="1950" width="120" height="60" as="geometry"/>
                </mxCell>
                <mxCell id="32" value="oAuth2-proxy" style="rounded=0;whiteSpace=wrap;html=1;" parent="1" vertex="1">
                    <mxGeometry x="680" y="1979" width="80" height="31" as="geometry"/>
                </mxCell>
                <mxCell id="34" value="Keycloak" style="rounded=0;whiteSpace=wrap;html=1;" parent="1" vertex="1">
                    <mxGeometry x="880" y="1974" width="80" height="36" as="geometry"/>
                </mxCell>
                <mxCell id="35" value="" style="endArrow=none;html=1;exitX=0.5;exitY=1;exitDx=0;exitDy=0;" parent="1" edge="1">
                    <mxGeometry width="50" height="50" relative="1" as="geometry">
                        <mxPoint x="520" y="2010" as="sourcePoint"/>
                        <mxPoint x="520" y="2250" as="targetPoint"/>
                    </mxGeometry>
                </mxCell>
                <mxCell id="36" value="" style="endArrow=none;html=1;exitX=0.5;exitY=1;exitDx=0;exitDy=0;" parent="1" edge="1">
                    <mxGeometry width="50" height="50" relative="1" as="geometry">
                        <mxPoint x="719.6700000000001" y="2010" as="sourcePoint"/>
                        <mxPoint x="720" y="2250" as="targetPoint"/>
                    </mxGeometry>
                </mxCell>
                <mxCell id="37" value="" style="endArrow=none;html=1;exitX=0.5;exitY=1;exitDx=0;exitDy=0;" parent="1" edge="1">
                    <mxGeometry width="50" height="50" relative="1" as="geometry">
                        <mxPoint x="919.5" y="2010" as="sourcePoint"/>
                        <mxPoint x="920" y="2250" as="targetPoint"/>
                    </mxGeometry>
                </mxCell>
                <mxCell id="39" value="" style="endArrow=classic;html=1;" parent="1" edge="1">
                    <mxGeometry width="50" height="50" relative="1" as="geometry">
                        <mxPoint x="520" y="2070" as="sourcePoint"/>
                        <mxPoint x="720" y="2070" as="targetPoint"/>
                    </mxGeometry>
                </mxCell>
                <mxCell id="45" value="Solicita acceso a Link&lt;div&gt;de la aplicación y es&lt;/div&gt;&lt;div&gt;interceptado por oAuth2-proxy&lt;/div&gt;" style="text;html=1;align=center;verticalAlign=middle;resizable=0;points=[];autosize=1;strokeColor=none;fillColor=none;" parent="1" vertex="1">
                    <mxGeometry x="530" y="2010" width="180" height="60" as="geometry"/>
                </mxCell>
                <mxCell id="46" value="" style="endArrow=classic;html=1;" parent="1" edge="1">
                    <mxGeometry width="50" height="50" relative="1" as="geometry">
                        <mxPoint x="720" y="2070" as="sourcePoint"/>
                        <mxPoint x="920" y="2070" as="targetPoint"/>
                    </mxGeometry>
                </mxCell>
                <mxCell id="49" value="El proxy intercepta solicitud&lt;div&gt;y&amp;nbsp;&lt;span style=&quot;background-color: transparent;&quot;&gt;llama&lt;/span&gt;&lt;span style=&quot;background-color: transparent;&quot;&gt;&amp;nbsp;a Keycloak&lt;/span&gt;&lt;div&gt;&lt;div&gt;para iniciar sesión&lt;/div&gt;&lt;/div&gt;&lt;/div&gt;" style="text;html=1;align=center;verticalAlign=middle;resizable=0;points=[];autosize=1;strokeColor=none;fillColor=none;" parent="1" vertex="1">
                    <mxGeometry x="730" y="2011.5" width="170" height="60" as="geometry"/>
                </mxCell>
                <mxCell id="51" value="Loggea al usuario y&amp;nbsp;&lt;span style=&quot;background-color: transparent;&quot;&gt;genera un&lt;/span&gt;&lt;div&gt;&lt;span style=&quot;background-color: transparent;&quot;&gt;token&amp;nbsp;&lt;/span&gt;&lt;span style=&quot;background-color: transparent;&quot;&gt;con protocolo&amp;nbsp;&lt;/span&gt;&lt;span style=&quot;background-color: transparent;&quot;&gt;oAuth2&lt;/span&gt;&lt;/div&gt;&lt;div&gt;&lt;span style=&quot;background-color: transparent;&quot;&gt;para&amp;nbsp;&lt;/span&gt;&lt;span style=&quot;background-color: transparent;&quot;&gt;enviar&amp;nbsp;&lt;/span&gt;&lt;span style=&quot;background-color: transparent;&quot;&gt;a oAuth2-proxy&lt;/span&gt;&lt;/div&gt;" style="text;html=1;align=center;verticalAlign=middle;resizable=0;points=[];autosize=1;strokeColor=none;fillColor=none;" parent="1" vertex="1">
                    <mxGeometry x="730" y="2100" width="190" height="60" as="geometry"/>
                </mxCell>
                <mxCell id="52" value="" style="endArrow=classic;html=1;" parent="1" edge="1">
                    <mxGeometry width="50" height="50" relative="1" as="geometry">
                        <mxPoint x="920" y="2160" as="sourcePoint"/>
                        <mxPoint x="720" y="2160" as="targetPoint"/>
                    </mxGeometry>
                </mxCell>
                <mxCell id="53" value="El proxy permite acceso&lt;div&gt;si el token es correcto&lt;/div&gt;" style="text;html=1;align=center;verticalAlign=middle;resizable=0;points=[];autosize=1;strokeColor=none;fillColor=none;" parent="1" vertex="1">
                    <mxGeometry x="550" y="2110" width="150" height="40" as="geometry"/>
                </mxCell>
                <mxCell id="54" value="" style="endArrow=classic;html=1;" parent="1" edge="1">
                    <mxGeometry width="50" height="50" relative="1" as="geometry">
                        <mxPoint x="720" y="2160" as="sourcePoint"/>
                        <mxPoint x="520" y="2160" as="targetPoint"/>
                    </mxGeometry>
                </mxCell>
                <mxCell id="55" value="" style="endArrow=classic;html=1;" parent="1" edge="1">
                    <mxGeometry width="50" height="50" relative="1" as="geometry">
                        <mxPoint x="520" y="2240" as="sourcePoint"/>
                        <mxPoint x="1040" y="2240" as="targetPoint"/>
                    </mxGeometry>
                </mxCell>
                <mxCell id="56" value="El usuario entra a la App" style="text;html=1;align=center;verticalAlign=middle;resizable=0;points=[];autosize=1;strokeColor=none;fillColor=none;" parent="1" vertex="1">
                    <mxGeometry x="545" y="2195" width="150" height="30" as="geometry"/>
                </mxCell>
                <mxCell id="57" value="" style="endArrow=none;html=1;exitX=0;exitY=1;exitDx=0;exitDy=0;entryX=0;entryY=0;entryDx=0;entryDy=0;" parent="1" source="_CQd6iAFJN-Xe26YO4HJ-15" target="61" edge="1">
                    <mxGeometry width="50" height="50" relative="1" as="geometry">
                        <mxPoint x="490" y="1690" as="sourcePoint"/>
                        <mxPoint x="480" y="1960" as="targetPoint"/>
                    </mxGeometry>
                </mxCell>
                <mxCell id="58" value="" style="endArrow=none;html=1;exitX=1;exitY=0;exitDx=0;exitDy=0;entryX=1;entryY=0;entryDx=0;entryDy=0;" parent="1" source="_CQd6iAFJN-Xe26YO4HJ-15" target="61" edge="1">
                    <mxGeometry width="50" height="50" relative="1" as="geometry">
                        <mxPoint x="199" y="1660" as="sourcePoint"/>
                        <mxPoint x="1000" y="1912.3706176961605" as="targetPoint"/>
                    </mxGeometry>
                </mxCell>
                <mxCell id="62" value="&lt;font style=&quot;font-size: 24px;&quot;&gt;VALIDACIÓN&lt;/font&gt;" style="text;html=1;align=center;verticalAlign=middle;resizable=0;points=[];autosize=1;strokeColor=none;fillColor=none;" parent="1" vertex="1">
                    <mxGeometry x="740" y="1920" width="170" height="40" as="geometry"/>
                </mxCell>
            </root>
        </mxGraphModel>
    </diagram>
    <diagram id="jlxQet7ZoH8FmcCfe9xw" name="Page-2">
        <mxGraphModel dx="1303" dy="550" grid="1" gridSize="10" guides="1" tooltips="1" connect="1" arrows="1" fold="1" page="1" pageScale="1" pageWidth="850" pageHeight="1100" math="0" shadow="0">
            <root>
                <mxCell id="0"/>
                <mxCell id="1" parent="0"/>
                <mxCell id="vtNp8i9YPVFxX3BI8ntv-1" value="" style="whiteSpace=wrap;html=1;" vertex="1" parent="1">
                    <mxGeometry x="80" y="180" width="120" height="60" as="geometry"/>
                </mxCell>
            </root>
        </mxGraphModel>
    </diagram>
</mxfile>